<svg width="30" height="30" viewBox="0 0 30 30" fill="none" xmlns="http://www.w3.org/2000/svg">
<g clip-path="url(#clip0_8049_113378)">
<path d="M26.7992 25.0999L20.1992 18.4999C21.6992 16.7999 22.4992 14.5999 22.4992 12.2999C22.4992 7.0999 18.2992 2.8999 13.0992 2.8999C7.89922 2.8999 3.69922 7.0999 3.69922 12.2999C3.69922 17.4999 7.89922 21.6999 13.0992 21.6999C15.2992 21.6999 17.3992 20.8999 19.0992 19.4999L25.6992 26.0999C25.7992 26.1999 25.9992 26.2999 26.1992 26.2999C26.3992 26.2999 26.5992 26.1999 26.6992 26.0999C27.0992 25.8999 27.0992 25.3999 26.7992 25.0999ZM13.1992 20.1999C8.79922 20.1999 5.29922 16.6999 5.29922 12.2999C5.29922 7.8999 8.79922 4.3999 13.1992 4.3999C17.5992 4.3999 20.9992 7.9999 20.9992 12.2999C20.9992 14.3999 20.1992 16.3999 18.6992 17.8999C17.1992 19.3999 15.2992 20.1999 13.1992 20.1999Z" fill="#002677"/>
</g>
<defs>
<clipPath id="clip0_8049_113378">
<rect width="30" height="30" fill="white"/>
</clipPath>
</defs>
</svg>
