<svg width="30" height="30" viewBox="0 0 30 30" fill="none" xmlns="http://www.w3.org/2000/svg">
<g clip-path="url(#clip0_8049_113368)">
<path d="M24.6008 15.5C24.6008 14.3 23.6008 13.3 22.4008 13.3C21.2008 13.3 20.2008 14.3 20.2008 15.5C20.2008 16.4 20.8008 17.3 21.7008 17.6V20.5C21.7008 23.3 20.0008 25.3 17.5008 25.3C15.0008 25.3 13.2008 23.3 13.2008 20.5V15.6C16.2008 15.2 18.5008 12.3 18.5008 8.70005V4.90005C18.5008 4.40005 18.3008 3.90005 17.9008 3.60005C17.4008 3.20005 17.0008 3.00005 16.4008 3.00005H15.0008C14.6008 3.00005 14.2008 3.30005 14.2008 3.80005C14.2008 4.30005 14.5008 4.60005 15.0008 4.60005H16.4008C16.5008 4.60005 16.6008 4.60005 16.7008 4.70005C16.8008 4.80005 16.8008 4.90005 16.9008 5.00005V8.80005C16.9008 11.8 14.9008 14.2 12.3008 14.2C9.80078 14.2 7.70078 11.8 7.70078 8.80005V4.90005C7.70078 4.80005 7.80078 4.60005 7.80078 4.50005C8.00078 4.50005 8.10078 4.40005 8.30078 4.40005H9.70078C10.1008 4.40005 10.5008 4.10005 10.5008 3.60005C10.5008 3.10005 10.2008 2.80005 9.70078 2.80005H8.30078C7.80078 2.80005 7.30078 3.00005 6.90078 3.40005C6.50078 3.90005 6.30078 4.40005 6.30078 4.90005V8.70005C6.30078 12.2 8.60078 15.1 11.6008 15.6V20.5C11.6008 24.2001 14.0008 26.8 17.4008 26.8C20.7008 26.8 23.1008 24.2001 23.1008 20.5V17.6C24.0008 17.3 24.6008 16.5 24.6008 15.5ZM22.4008 14.8C22.8008 14.8 23.1008 15.1 23.1008 15.5C23.1008 15.9 22.8008 16.2 22.4008 16.2C22.0008 16.2 21.7008 15.9 21.7008 15.5C21.7008 15.1 22.0008 14.8 22.4008 14.8Z" fill="#002677"/>
</g>
<defs>
<clipPath id="clip0_8049_113368">
<rect width="30" height="30" fill="white"/>
</clipPath>
</defs>
</svg>
